<svg xmlns="http://www.w3.org/2000/svg" version="1.1" viewBox="0 0 500 106"><path d="M58.957 3.21c3.969 1.689 3.969 1.689 8.05 1.013l2.118-1.16C74.955.318 80.263-.164 86.457 1.766c6.116 2.555 10.792 5.307 13.856 11.359 2.674 6.67 2.61 12.883.374 19.688-4.48 10.005-13.369 18.021-20.937 25.75l-1.714 1.768c-4.574 4.564-8.807 8.537-15.56 8.814-4.596-1.514-6.9-3.932-10.101-7.457-1.094-1.165-2.19-2.328-3.29-3.489l-1.584-1.686C45.486 54.482 43.234 52.783 41 51c-7.705-8.259-14.815-17.322-15-29 .442-6.426 2.554-10.703 7.016-15.34C36.122 4.062 39.074 2.87 43 2l2.191-.496c5.148-.868 8.924-.18 13.766 1.707ZM38 14c-2.46 3.605-4.118 6.585-3.75 11l.75 2 4-1 .688-3.25c1.49-4.257 2.494-5.46 6.312-7.75 2.327-.845 4.582-1.431 7-2V9c-5.195 0-11.009 1.674-15 5Z" fill="#01CBCB"/><path d="m166.438 24.688 3.779-.088c9.544-.066 17.301 1.12 24.658 7.525 6.54 7.264 8.239 16.331 8.125 25.875-.862 9.182-3.8 16.604-10.828 22.676-8.298 5.06-16.211 4.685-25.672 4.511a9376.614 9376.614 0 0 0-11.615-.15L152 85c-.023-7.675-.04-15.35-.052-23.026-.005-3.564-.012-7.127-.023-10.691a6281.83 6281.83 0 0 1-.023-12.28l-.015-3.894v-3.58l-.007-3.169c.306-6.016 10.013-3.638 14.558-3.672ZM166 37c-.025 5.109-.043 10.217-.055 15.326-.005 1.74-.012 3.478-.02 5.218-.013 2.494-.018 4.989-.023 7.483l-.015 2.37c0 1.869.051 3.736.113 5.603 1.192 1.416 1.192 1.416 4.625 1.188 5.492-.099 9.77-.94 14.188-4.376 4.324-5.56 4.95-11.982 4.187-18.812-1.196-4.94-2.871-8.843-7-12-3.75-1.807-6.668-2.225-10.813-2.125l-2.957.055L166 37Z" fill="#EBFCF7"/><path d="m122 27 3 1c.367 1.994.69 3.996 1 6l.36 2.168c1.48 10.807-.639 20.046-5.172 29.832l-1.004 2.176c-3.507 7.16-8.452 11.273-15.121 15.386l-3.59 2.254-1.75 1.099L98 88l-1.743 1.097C93.103 91.042 93.103 91.042 91 94c-.313 2.852-.51 5.705-.719 8.566C90 105 90 105 89 106c-1.623.1-3.25.13-4.875.133l-2.984.004-3.141-.012-3.14.012-2.985-.004-2.758-.004C67 106 67 106 66 105c-.857-11.68-.338-21.181 7.563-30.438A165.025 165.025 0 0 1 77 71l1.46-1.625c1.81-1.616 3.297-2.205 5.603-2.938l2.414-.785C89 65 89 65 91.46 64.754c7.542-.773 10.812-4.613 15.41-10.223C109 52 109 52 112 50h4l.113-2.055C117.258 31.742 117.258 31.742 122 27Z" fill="#05DDB2"/><path d="M4 27c2.274.91 3.705 1.565 5.098 3.617 1.227 3.24 1.247 6.306 1.464 9.758.51 5.251.51 5.251 3.286 9.625 2.275 1.415 2.275 1.415 4.75 2.61 2.818 1.63 4.065 3.391 5.965 6.015 4.06 4.885 8.565 5.771 14.501 7.004 7.48 1.583 12.392 3.958 16.995 10.133 6.074 9.349 6.074 9.349 6.039 14.59l-.01 2.578-.026 2.695-.013 2.719c-.012 2.219-.028 4.437-.049 6.656-3.812.196-7.625.38-11.438.563l-3.298.17-3.135.146-2.904.143C39 106 39 106 38 105c.091-2.46.262-4.906.453-7.36-.667-3.886-2.448-5.139-5.453-7.64-2.604-1.776-5.286-3.398-8-5-8.124-4.796-13.124-9.413-17.188-18l-1.037-2.117A326.34 326.34 0 0 1 4 59l-1.191-2.52c-1.094-3.354-1.361-6.67-1.559-10.167l-.128-2.134C.865 38.61 1.234 33.335 3 28l1-1Z" fill="#01C3D5"/><path d="m494.625 20.875 2.414-.008C499 21 499 21 500 22c.094 1.994.117 3.992.114 5.989v3.882l-.016 4.227-.005 4.3c-.003 3.78-.013 7.56-.024 11.339-.01 3.854-.015 7.708-.02 11.562-.01 7.567-.028 15.134-.049 22.701-1.625.027-3.25.046-4.875.063l-2.742.035C490 86 490 86 488 85v-2l-2.75 1.5c-5.701 2.422-12.495 2.706-18.402.809C460.97 82.235 457.039 77.243 455 71c-.698-7.078-1.022-14.845 3-21 4.172-4.936 8.416-7.836 14.832-8.863 3.185-.201 6.054.204 9.168.863l5 1V22c2.842-.947 4.676-1.135 7.625-1.125ZM470 55c-1.98 3.001-2.272 5.445-2.25 9l-.016 2.563c.287 2.63.845 4.216 2.266 6.437 3.398 2.291 5.447 3 9.563 3 4.2-1.222 5.842-2.49 8.437-6 1.656-5.588.73-8.93-2-14-1.766-2.523-2.781-2.93-5.75-3.875-4.173-.16-6.622.852-10.25 2.875Z" fill="#EBFDF8"/><path d="m368 22-.016 1.896c-.02 2.826-.034 5.653-.046 8.479l-.026 2.984-.01 2.852-.016 2.634C367.86 43.05 367.86 43.05 369 45l2-2c5.345-1.861 10.518-2.624 16-1 4.6 2.96 7.305 5.749 9 11 .243 3.49.243 3.49.23 7.453v2.124a812.95 812.95 0 0 1-.024 4.417c-.019 2.263-.02 4.525-.02 6.787-.038 11.071-.038 11.071-1.186 12.219-1.831.099-3.666.13-5.5.125l-3.031.008C384 86 384 86 383 85c-.122-2.11-.18-4.223-.21-6.336-.03-1.292-.058-2.583-.087-3.914a857.21 857.21 0 0 1-.104-6.188 595.82 595.82 0 0 0-.122-5.96l-.06-3.615c-.184-2.954-.184-2.954-1.728-4.884-2.794-1.825-5.455-1.334-8.689-1.103l-3 1c-.844 6.855-1.284 13.663-1.563 20.563l-.13 3.056c-.105 2.46-.207 4.92-.307 7.381h-13c-.023-8.067-.04-16.133-.052-24.2-.005-3.745-.012-7.49-.023-11.235-.011-3.612-.017-7.223-.02-10.835-.002-1.38-.005-2.761-.01-4.142a1570.71 1570.71 0 0 1-.009-5.783l-.006-3.331C354 23 354 23 355 22c1.617-.26 3.245-.46 4.875-.625.884-.095 1.769-.19 2.68-.29C365 21 365 21 368 22Z" fill="#ECFDF7"/><path d="M245.125 44.063c4.397 2.92 7.813 6.681 9.48 11.792 1.294 7.033 1.368 14.205-2.347 20.465-3.921 5.237-8.959 8.295-15.258 9.68-8.46 1.063-14.932-.158-22-5-4.945-4.564-6.608-10.922-7.438-17.438.936-7.615 3.468-13.52 9.461-18.406 8.004-4.682 19.807-5.332 28.102-1.093ZM224 54c-3.176 3.743-3.466 7.121-3.285 11.852.562 4.237 2.307 6.381 5.597 8.96 3.219 1.423 5.2 1.624 8.688 1.188 3.67-1.451 4.844-2.748 6.938-6.125 1.684-4.51.783-8.491-.938-12.875-2.197-3.138-3.34-3.838-7.063-4.75-4.034-.343-6.515-.496-9.937 1.75Z" fill="#EBFCF7"/><path d="m408.723 41.902 3.34.035 3.347.028L418 42l.028 2.599c.044 3.19.106 6.38.18 9.571.028 1.38.049 2.759.063 4.138.021 1.986.07 3.972.12 5.958l.063 3.618c.647 3.693 1.53 4.936 4.546 7.116 3.665 0 6.002-.018 8.683-2.655 1.723-3.067 1.749-5.351 1.829-8.86l.107-3.79.068-3.945.104-3.992c.083-3.253.152-6.505.209-9.758 1.98-.027 3.958-.046 5.938-.063l3.34-.035C446 42 446 42 447 43c.089 3.103.115 6.183.098 9.285l-.005 2.82c-.005 2.986-.018 5.972-.03 8.958A7811.269 7811.269 0 0 1 447 85c-2.644.88-4.28 1.16-7 1.186l-2.063.043C436 86 436 86 433 84c-1.642.47-3.282.946-4.906 1.473-5.248 1.321-10.391 1.126-15.469-.66-3.304-2.282-5.874-4.657-7.222-8.527-.557-3.16-.533-6.215-.536-9.423l-.003-2.06c0-1.432.001-2.863.006-4.294.005-2.2 0-4.398-.007-6.597 0-1.391.002-2.782.004-4.174l.004-3.842c.172-3.862.172-3.862 3.852-3.994ZM307 25a7440.92 7440.92 0 0 1 17.035-.055c1.933-.005 3.866-.012 5.8-.02 2.772-.013 5.545-.018 8.317-.023l2.636-.015c2.071 0 4.142.05 6.212.113 1 1 1 1 1.098 3.504L348 37h-14v48c-2.827.942-4.632 1.135-7.563 1.125l-2.378.008C322 86 322 86 320 85l1-48h-14V25Z" fill="#EBFDF7"/><path d="m282.875 41.75 3.617-.078c6.025.563 10.218 3.373 14.317 7.633C302.722 52.027 302.87 54.75 303 58c-4.075.988-7.817 1.465-12 1a264.271 264.271 0 0 1-3-5c-4.6-1.215-8.381-1.014-13 0-2.002 5.535-2.62 10.252-1 16 1.793 3.294 1.793 3.294 5 5 3.219.367 5.944.082 9-1a1049.33 1049.33 0 0 0 4-5c3.83-.73 7.31-.23 11 1-.39 5.458-2.155 8.155-6 12-6.918 4.094-14.361 5.33-22.254 3.469-5.657-1.975-9.913-4.69-13.058-9.906-2.816-6.113-2.666-13.297-1.18-19.778 2.113-5.55 6.59-9.622 11.492-12.785 3.59-1.194 7.114-1.201 10.875-1.25Z" fill="#ECFCF7"/><path d="m122 27 3 1c.367 1.994.69 3.996 1 6l.36 2.168c1.48 10.807-.639 20.046-5.172 29.832l-1.004 2.176c-2.136 4.36-4.42 7.638-8.184 10.824h-2l-.402-2.117-.535-2.758-.528-2.742C108.1 69 108.1 69 107 67h-2v2c-3 1-3 1-4.813.5-2.92-.667-5.281-.094-8.187.5v-3l3-1 1-2 2.305-1.34c2.89-1.78 4.644-3.632 6.82-6.222 2.253-2.67 3.944-4.484 6.875-6.438h4l.113-2.055C117.258 31.742 117.258 31.742 122 27Z" fill="#05B5E4"/><path d="M4 27c2.274.91 3.705 1.565 5.098 3.617 1.227 3.24 1.247 6.306 1.464 9.758.51 5.251.51 5.251 3.286 9.625 2.275 1.415 2.275 1.415 4.75 2.61 2.818 1.63 4.065 3.391 5.965 6.015 4.602 5.577 10.233 6.339 17.023 7.621C45 67 45 67 47 69H29v-2l-4 1-.75-2.875c-.936-3.212-.936-3.212-3.375-4.5L19 60c.613 2.962 1.254 4.38 3 7l-4 1v-2h-3l-1-5h-3l-2 1c1.26 5.041 2.882 6.938 7 10l1 3-1 1 8 4 1-2 .813 2.25c1.13 2.616 2.396 4.552 4.187 6.75-10.379-3.904-17.245-8.924-22-19l-1.656-3.191C.794 53.303-1.101 40.388 3 28l1-1Zm10 45 1 2Z" fill="#04F599"/><path d="M57 2c1.247 3.742.599 4.64-1.063 8.125C54.523 12.848 54.523 12.848 53 15c-1.991.381-3.993.713-6 1-3.195 3.457-5.884 7.014-6.164 11.797L41 30c-3.947.18-6.598.094-10-2l-1 3h2l.688 3.188C33.81 38.172 35.837 40.312 39 43l2 1-1 1 7 1v2h2v3h-2l1.5 1.375C50 54 50 54 50 56l6-1c1 2 1 2 .438 4L56 61l2 2-2 2-2.012-2.047-2.675-2.703-2.637-2.672c-2.579-2.57-2.579-2.57-5.227-4.586-8.088-6.58-15.546-16.592-17.386-27.054-.128-8.028 1.287-13.39 6.953-19.278C39.28 1.42 49.196-.266 57 2ZM38 14c-2.46 3.605-4.118 6.585-3.75 11l.75 2 4-1 .688-3.25c1.49-4.257 2.494-5.46 6.312-7.75 2.327-.845 4.582-1.431 7-2V9c-5.195 0-11.009 1.674-15 5Z" fill="#0BEA98"/><path d="m122 27 3 1c.367 1.994.69 3.996 1 6l.36 2.168c1.42 10.37-.433 19.576-4.735 29.02l-.885 1.963c-1.344 2.767-2.345 4.596-4.967 6.275L114 74a336.784 336.784 0 0 1-.125-4.75l-.07-2.672c.208-2.749.837-4.211 2.195-6.578a242.533 242.533 0 0 0 1.625-3.75L119 53l-2-1v-1l-4-1h3l.113-2.055C117.258 31.742 117.258 31.742 122 27Z" fill="#05ABED"/><path d="M88.813 2.75c6.243 3.177 9.82 6.188 12.457 12.762 2.007 6.837 1.185 13.287-1.665 19.758C95.868 41.626 90.068 50.333 83 53v-2l2-1 1-3h3l.55-1.863.763-2.45.738-2.425C92.04 37.9 93.08 36.662 95 35l2 1 1-7h-1V19l-2-1 2-5-7-1-1-7-6 1-1-2a672.997 672.997 0 0 0-4.75-.063l-2.672-.035c-2.36.09-4.323.429-6.578 1.098v2c-6.4.492-6.4.492-9.438-2L57 3c4 1 4 1 5.883 1.656 2.745.446 3.827-.27 6.242-1.593C75.865-.11 81.942-.122 88.813 2.75Z" fill="#1C9DD7"/><path d="m10 44 .742 1.832c1.495 2.576 2.824 3.371 5.383 4.855 3.667 2.277 5.885 4.476 8.438 7.938 4.602 5.577 10.233 6.339 17.023 7.621C45 67 45 67 47 69H29v-2l-4 1-.75-2.875c-.936-3.212-.936-3.212-3.375-4.5L19 60c.613 2.962 1.254 4.38 3 7l-4 1v-2h-3c-1.882-5.959-2.197-9.142 0-15l-5-1-1 3-1-5h2v-4Z" fill="#0EDEA8"/><path d="M31 9c0 3 0 3-.96 5.293-1.184 3.082-1.448 5.733-1.665 9.02l-.227 3.238L28 29h2v2h2l.688 3.188C33.81 38.172 35.837 40.312 39 43l2 1-1 1 7 1v2h2v3h-2l1.5 1.375C50 54 50 54 50 56l6-1c1 2 1 2 .438 4L56 61l2 2-2 2-2.012-2.047-2.675-2.703-2.637-2.672c-2.579-2.57-2.579-2.57-5.227-4.586-8.088-6.58-15.546-16.592-17.386-27.054-.1-6.183.484-12.283 4.937-16.938Z" fill="#21D895"/><path d="m111 51 1 2-2 2c-.023 2.221-.023 2.221.375 4.625l.336 2.477L111 64h-2l-1 5-1-2h-2v2c-3 1-3 1-4.813.5-2.92-.667-5.281-.094-8.187.5v-3l3-1 1-2c.76-.44 1.519-.882 2.3-1.336 2.913-1.795 4.691-3.681 6.888-6.289 3.621-4.28 3.621-4.28 5.812-5.375Z" fill="#09BBD6"/><path d="m122 27 3 1c.367 1.994.69 3.996 1 6l.36 2.168c1.44 10.523-.377 20.47-5.36 29.832h-1v-6h2c1.314-3.94 1.074-7.903 1-12-.155-8.536-.155-8.536 1-12h-3l-.375 2.25c-.58 2.551-1.362 4.477-2.625 6.75-1.672-5.775-.211-10.584 2-16l2-2Z" fill="#189DDD"/><path d="M79 69v3l2 1v2l-2.313-.25c-2.728-.007-2.728-.007-4.437 1.75-1.752 3.503-1.925 6.602-2.25 10.5h-2l.063 2.938C70 93 70 93 69 94a123.141 123.141 0 0 0-.563 5.563l-.253 3.066L68 105l4 1c-1.666.043-3.334.04-5 0-2.215-2.215-1.312-7.573-1.315-10.64C65.903 83.748 71.025 76.973 79 69Z" fill="#21DD98"/><path d="M98 78c3.146-.262 4.618-.248 7.313 1.5L107 81v-2l4 1a529.905 529.905 0 0 1-7.125 4.563l-2.016 1.326c-3.485 2.17-5.142 3.157-9.351 2.888L90 88l-1-4 3.375-.75c3.671-.86 3.671-.86 5.063-3.375L98 78Z" fill="#02D4C2"/><path d="M4 27c2.388.955 3.731 1.557 5.086 3.79.965 2.333 1.38 4.33 1.664 6.835l.297 2.352C11 42 11 42 9 44L8 34H4c-.177 8.378.377 16.65 1 25C.414 54.414 1.187 46.188.992 39.991 1.008 36.12 1.086 29.914 4 27Z" fill="#21D893"/><path d="m5 59 3 1c.773 1.707.773 1.707 1.375 3.813C10.732 67.855 12.496 69.51 16 72l1 3-1 1 8 4 1-2 .813 2.25c1.13 2.616 2.396 4.552 4.187 6.75-9.03-3.396-16.25-7.75-20.852-16.422A81.266 81.266 0 0 1 5 59Zm9 13 1 2Z" fill="#15CAAF"/><path d="M88.813 2.75A39.606 39.606 0 0 1 98 9l-1 2-1.188-1.5C93.45 7.544 91.987 7.758 89 8V5l-6 1-1-2a672.997 672.997 0 0 0-4.75-.063l-2.672-.035c-2.36.09-4.323.429-6.578 1.098v2c-6.4.492-6.4.492-9.438-2L57 3c4 1 4 1 5.883 1.656 2.745.446 3.827-.27 6.242-1.593C75.865-.11 81.942-.122 88.813 2.75Z" fill="#25ABBC"/><path d="M91 7c2.915.324 4.257 1.196 6.625 3 3.205 4.048 2.96 6.82 2.688 11.813l-.069 2.388A301.053 301.053 0 0 1 100 30l-3-1V19l-2-1 2-5-7-1 1-5Z" fill="#03A6F4"/><path d="M61 86h1v19c-3.812.194-7.625.38-11.438.563l-3.298.17-3.135.146-2.904.143C39 106 39 106 38 105c.059-1.584.147-3.168.25-4.75.052-4.025.03-4.894-2.563-8.188L33 90l-3-3h5v2h3c2.635 5.106 2 7.467 2 14l21 1V86Z" fill="#2EA5BE"/><path d="m46 46 1 2h2v3h-2l1.5 1.375C50 54 50 54 50 56l6-1c1 2 1 2 .438 4L56 61l2 2-2 2c-1.587-1.56-3.17-3.123-4.75-4.688l-2.672-2.636C42 50.848 42 50.848 42 47l4-1Z" fill="#0BD3B5"/><path d="m89 46-3 1c-.733 2.015-.733 2.015-1 4h-2l1 3c-1.643 1.67-3.29 3.336-4.938 5l-2.777 2.813C74 64 74 64 73 64v-8l2-1 2 1v-2h4v-7c2.709-1.354 5.01-1.065 8-1Z" fill="#10BCCD"/><path d="M25 63c2.775.372 5.498.81 8.25 1.313l2.316.396C39.598 65.429 43.25 66.282 47 68c-3.619 1.206-6.925 1.108-10.688 1.063l-2.126-.014c-1.729-.012-3.458-.03-5.186-.049v-2l-4 1c-.563-1.938-.563-1.938-1-4l1-1Z" fill="#17BCBB"/><path d="M54 8c.625 1.813.625 1.813 1 4-2 3-2 3-5.188 3.875C45.28 17.212 42.71 19.123 39 22c1.504-3.83 3.557-5.78 7-8 3.813-.75 3.813-.75 7-1V9c-7.608 2.186-7.608 2.186-15 5v-3c5.528-2.106 10.07-3.379 16-3Z" fill="#24BF9C"/><path d="M56 77c5.131 6.29 5.131 6.29 5.098 11.57l-.01 2.715-.026 2.84-.013 2.863c-.012 2.338-.03 4.675-.049 7.012H44v-1l16-1c-.444-10.916-.444-10.916-4-21v-4Z" fill="#0DA4DF"/><path d="m30 16 3 1v10l-5 2V17l2-1Z" fill="#04F894"/><path d="m56 2 2 3c-1.375 2-1.375 2-4 4-3.358.358-6.635.231-10 0l1-3h2l1-3 8-1Z" fill="#03E1B0"/><path d="m104 61 2 3c-1 3-1 3-3.063 4.125C99.278 69.215 95.8 69.614 92 70v-3l3-1 2-2c2.625.375 2.625.375 5 1v-3l2-1Z" fill="#02C7CE"/><path d="m56 3-3.813.313c-2.792.336-3.931.487-6.187 2.25L45 7l-1-2c-4.822.325-4.822.325-8.938 2.563L34 9l-2-1C36.71 2.348 42.98 1.885 49.887.953 52.39 1.01 53.86 1.744 56 3Z" fill="#1DD2A1"/><path d="m5 59 3 1c.773 1.707.773 1.707 1.375 3.813C10.732 67.855 12.496 69.51 16 72l1 3h-5c-1.172-2.29-2.337-4.581-3.5-6.875l-1.012-1.973C5 61.227 5 61.227 5 59Zm9 13 1 2Z" fill="#20D697"/><path d="M40.563 4.938 44 5l1 3-3 1-1 2h-3l-1 4c-1.072-3.216-1.146-5.634-1-9 1-1 1-1 4.563-1.063Z" fill="#06EBA1"/><path d="m10 50 5 1c.08 3.522.04 6.62-1 10h-2c-1.46-2.647-2-3.894-2-7l-2-1h2v-3Z" fill="#04EAA2"/><path d="M70 91c2 2 2 2 2.25 5.313-.231 3.412-.773 5.642-2.25 8.687h-2c-.054-1.77-.093-3.541-.125-5.313l-.07-2.988C68 94 68 94 70 91Z" fill="#03F996"/><path d="M121 36h3v16l-4-4c.25-2.875.25-2.875 1-6 .037-2 .048-4 0-6Z" fill="#01A6F9"/><path d="M120 40c2.101 3.46 2.101 3.46 1.625 6L121 48v4l-4 1v-2l-4-1h3l1-5h2l1-5Z" fill="#0AA8E2"/><path d="m107 79 4 1-15 9-1-3h3v-2l6-1 1-3 2 1v-2Z" fill="#20BDC1"/><path d="M98 78h5l1 5-6 1c-1.125-3.75-1.125-3.75 0-6Z" fill="#03C8D0"/><path d="m46 46 1 2h2v3h-2l1 3c-2.468-1.152-4.048-2.048-6-4v-3l4-1Z" fill="#04E6A9"/><path d="m89 46-3 1c-.733 2.015-.733 2.015-1 4h-2l1 3-3 1v-8c2.709-1.354 5.01-1.065 8-1Z" fill="#05B4DF"/><path d="m28 79 4 2v6c-3.367-1.393-4.986-2.979-7-6l3-2Z" fill="#05D2C2"/><path d="m56 2 2 3-4 4-3-2V5h2V3l3-1Z" fill="#07DABA"/><path d="m14 61 7 4v3h-3v-2h-3l-1-5Z" fill="#01D8A1"/><path d="m44 17 2 1-7 10-4-1 3-1a634.84 634.84 0 0 0 2-5c2.125-2.313 2.125-2.313 4-4Z" fill="#0FD89A"/><path d="M58 62h5l1 3-1 2c-2.169-.506-4-1-6-2l1-3Z" fill="#03D2C3"/><path d="m10 44 .688 1.813c1.65 2.75 3.51 3.712 6.312 5.187l-2 1c-2.625-.938-2.625-.938-5-2l-1 3-1-5h2v-4Z" fill="#19D097"/><path d="M76 2h11v2l2 1-6 1-1-2c-3.03-.658-3.03-.658-6-1V2Z" fill="#11AED3"/><path d="M11 69c2.622 1.049 3.794 1.65 5.25 4.125L17 75c-1.666.043-3.334.04-5 0-1-1-1-1-1.063-3.563L11 69Zm3 3 1 2Z" fill="#0CE4A2"/><path d="M98 11c2 2 2 2 2.125 5.125L100 19l-5-1 .938-1.813C97.102 13.91 97.102 13.91 98 11Z" fill="#0EA1E7"/><path d="M72 3h9l-1 2c-2.066.414-2.066.414-4.563.625l-2.503.227L71 6l1-3Z" fill="#05BFD8"/><path d="M96 64c2 2 2 2 2 5l-6 1v-3l3-1 1-2Z" fill="#04D3C4"/><path d="M55 9c.75 1.75.75 1.75 1 4-2.052 2.763-3.415 3.84-6.75 4.75L47 18v-3l2.875-.188L53 14c1.453-2.463 1.453-2.463 2-5Z" fill="#09DBB4"/><path d="M30 87h5v2h3l-1 4a697.93 697.93 0 0 1-3.5-2.438l-1.969-1.37L30 88v-1Z" fill="#1CBBBD"/><path d="M23 57c4.875 4.75 4.875 4.75 6 7-2.375-.313-2.375-.313-5-1l-2-3 1-3Z" fill="#1BCAAF"/><path d="M19 56c2.063.438 2.063.438 4 1l-1 4-3-1-1 2a99.984 99.984 0 0 1 0-5l1-1Z" fill="#02E2B2"/><path d="M46 54h4v2h2l1 5a858.147 858.147 0 0 1-3.5-2.938l-1.969-1.652L46 55v-1Z" fill="#1EC8A7"/><path d="M56 77c4.429 5.143 4.429 5.143 5 9-3-1-3-1-4.188-2.813C56 81 56 81 56 77Z" fill="#21A2D6"/><path d="M50 73c1.675.286 3.344.618 5 1l-1 3c-2.063.688-2.063.688-4 1-.563-1.938-.563-1.938-1-4l1-1Z" fill="#04B4EC"/><path d="m25 63 5 2v2l-5 1c-.563-1.938-.563-1.938-1-4l1-1Z" fill="#04D7BA"/><path d="m103 58 1 4h-2v3l-5 1v-2a262.496 262.496 0 0 1 5-4l1-2Z" fill="#1CB6BD"/><path d="m89 45 1 3a141.4 141.4 0 0 1-5 5h-2v-2l2-1 1-3h3v-2Z" fill="#19ACCB"/><path d="m92 38 2 1c-1.75 5.75-1.75 5.75-4 8 .875-6.75.875-6.75 2-9Z" fill="#12A8E5"/><path d="M38 5h6l1 3-2 1c-2.625-.938-2.625-.938-5-2V5Z" fill="#01F0A9"/><path d="M13 75c4.677 1.477 4.677 1.477 6.313 4.125L20 81a56.54 56.54 0 0 1-7-4v-2Z" fill="#25C99E"/><path d="M45 9v2c-4.385 3-4.385 3-7 3v-3c2.647-1.46 3.894-2 7-2Z" fill="#1CD3A1"/></svg>