<?xml version="1.0" encoding="UTF-8"?>
<svg version="1.1" xmlns="http://www.w3.org/2000/svg" width="38" height="38">
<path d="M0 0 C0.99 0 1.98 0 3 0 C3.18175781 0.61488281 3.36351562 1.22976563 3.55078125 1.86328125 C3.80214844 2.67152344 4.05351563 3.47976562 4.3125 4.3125 C4.55613281 5.11300781 4.79976563 5.91351563 5.05078125 6.73828125 C6.04787062 9.11406211 7.16367262 10.24597301 9 12 C9 12.66 9 13.32 9 14 C9.9075 14.061875 10.815 14.12375 11.75 14.1875 C15.73784176 15.18446044 16.76592111 16.64888166 19 20 C19.515625 19.236875 20.03125 18.47375 20.5625 17.6875 C23.44592722 14.50833666 26.06587606 13.6158009 30 12 C33.36580894 9.51993026 33.91538329 8.42308353 34.75 4.25 C34.8325 3.1775 34.915 2.105 35 1 C35.99 0.67 36.98 0.34 38 0 C38.75195822 15.06005222 38.75195822 15.06005222 34 21 C30.70967742 24 30.70967742 24 28 24 C28 25.65 28 27.3 28 29 C22.39 29 16.78 29 11 29 C10.34 27.35 9.68 25.7 9 24 C7.49189108 22.78067789 5.98320969 21.56199425 4.46484375 20.35546875 C0.90917867 17.06529332 0.0855911 13.51781552 -0.17578125 8.8828125 C-0.1862564 5.91485328 -0.1314434 2.96477891 0 0 Z " fill="#0AB7D6" transform="translate(0,9)"/>
<path d="M0 0 C0.77214844 -0.01998047 1.54429688 -0.03996094 2.33984375 -0.06054688 C7.95213742 -0.05568354 7.95213742 -0.05568354 10.49609375 2.234375 C12.08146308 5.71355128 12.30266401 8.760781 11.5 12.4375 C8.77765155 17.8821969 4.97401288 22.35825296 0.5 26.4375 C-5.58530588 23.57382665 -9.99118121 17.61305394 -12.5 11.4375 C-12.58203125 9.40234375 -12.58203125 9.40234375 -12.3125 7.375 C-12.23644531 6.70339844 -12.16039062 6.03179687 -12.08203125 5.33984375 C-10.27470911 -0.56730982 -5.29202092 -0.04859118 0 0 Z " fill="#03C5CE" transform="translate(19.5,-0.4375)"/>
<path d="M0 0 C-0.33 1.65 -0.66 3.3 -1 5 C-1.66 5 -2.32 5 -3 5 C-2.67 5.99 -2.34 6.98 -2 8 C-1.93197033 9.72795352 -1.91504355 11.45835365 -1.9375 13.1875 C-1.94652344 14.08855469 -1.95554687 14.98960938 -1.96484375 15.91796875 C-1.97644531 16.60503906 -1.98804688 17.29210937 -2 18 C-3.32 18.33 -4.64 18.66 -6 19 C-9.01089022 15.08271722 -11.5215607 11.7987949 -11 6.6875 C-10 3 -10 3 -8.875 1 C-5.95813337 -0.5556622 -3.23371783 -0.18304063 0 0 Z " fill="#03E5A9" transform="translate(18,0)"/>
<path d="M0 0 C2.375 -0.1875 2.375 -0.1875 5 0 C7.47441166 3.71161749 7.67548653 6.69573701 7 11 C5.88710151 13.57418259 4.56646279 15.65030581 3 18 C1.68 17.67 0.36 17.34 -1 17 C-1.02709444 14.91673869 -1.04643873 12.83337559 -1.0625 10.75 C-1.07410156 9.58984375 -1.08570312 8.4296875 -1.09765625 7.234375 C-1.01782092 4.59022872 -0.78643778 2.50173909 0 0 Z " fill="#02B3E5" transform="translate(24,1)"/>
<path d="M0 0 C0.99 0 1.98 0 3 0 C3.19335938 0.60328125 3.38671875 1.2065625 3.5859375 1.828125 C3.84632812 2.62734375 4.10671875 3.4265625 4.375 4.25 C4.63023437 5.03890625 4.88546875 5.8278125 5.1484375 6.640625 C5.92883314 8.99829946 5.92883314 8.99829946 7.125 11.03125 C8.6342228 14.42700131 7.59881881 17.40708715 7 21 C7.66 21 8.32 21 9 21 C8.67 21.66 8.34 22.32 8 23 C3.67842279 20.0800154 1.1346704 17.10601682 0 12 C-0.23111493 7.98563412 -0.17803118 4.0155921 0 0 Z " fill="#0EE499" transform="translate(0,9)"/>
<path d="M0 0 C1.32 0 2.64 0 4 0 C3.67 4.29 3.34 8.58 3 13 C0.69 13 -1.62 13 -4 13 C-4.29543354 7.97762985 -4.00679573 5.0892422 -1 1 C-0.67 0.67 -0.34 0.34 0 0 Z " fill="#11DE92" transform="translate(23,25)"/>
<path d="M0 0 C0.66 0 1.32 0 2 0 C1.98428955 0.62567871 1.9685791 1.25135742 1.95239258 1.89599609 C1.89015325 4.72223931 1.85104538 7.54833861 1.8125 10.375 C1.78736328 11.35984375 1.76222656 12.3446875 1.73632812 13.359375 C1.72666016 14.30039062 1.71699219 15.24140625 1.70703125 16.2109375 C1.6913208 17.08024902 1.67561035 17.94956055 1.65942383 18.84521484 C1.77181396 19.55629395 1.8842041 20.26737305 2 21 C2.99 21.66 3.98 22.32 5 23 C4.01 23.33 3.02 23.66 2 24 C-1.23014784 21.84656811 -2.75686537 20.72940389 -4 17 C-3.34 16.67 -2.68 16.34 -2 16 C-2 11.71 -2 7.42 -2 3 C-1.34 3 -0.68 3 0 3 C0 2.01 0 1.02 0 0 Z " fill="#10CBB5" transform="translate(17,2)"/>
<path d="M0 0 C2.02045442 0.60183749 4.02111039 1.27306096 6 2 C7.20272819 4.40545638 7.10071472 5.94996953 7.0625 8.625 C7.05347656 9.44226562 7.04445313 10.25953125 7.03515625 11.1015625 C7.02355469 11.72804688 7.01195312 12.35453125 7 13 C4.03 12.505 4.03 12.505 1 12 C1.020625 10.7625 1.04125 9.525 1.0625 8.25 C1.06766681 5.3359175 0.93015558 2.79046673 0 0 Z " fill="#02B0EA" transform="translate(12,25)"/>
<path d="M0 0 C0.66 0 1.32 0 2 0 C2.738041 14.78132118 2.738041 14.78132118 -2 21 C-2.33 21 -2.66 21 -3 21 C-3 19.02 -3 17.04 -3 15 C-2.34 15 -1.68 15 -1 15 C-1 13.35 -1 11.7 -1 10 C-1.99 9.67 -2.98 9.34 -4 9 C-3.34 8.67 -2.68 8.34 -2 8 C-1.62599214 5.67284 -1.29235267 3.33882138 -1 1 C-0.67 0.67 -0.34 0.34 0 0 Z " fill="#15A1DD" transform="translate(36,9)"/>
<path d="M0 0 C0.66 0.33 1.32 0.66 2 1 C2 3.97 2 6.94 2 10 C0.68 10.33 -0.64 10.66 -2 11 C-2.05399736 9.54207116 -2.09279177 8.08357288 -2.125 6.625 C-2.15980469 5.40683594 -2.15980469 5.40683594 -2.1953125 4.1640625 C-2 2 -2 2 0 0 Z " fill="#02EFA0" transform="translate(23,27)"/>
<path d="M0 0 C0.99 0.33 1.98 0.66 3 1 C3.95024979 4.69541586 3.95024979 7.30458414 3 11 C3.66 11 4.32 11 5 11 C4.67 11.66 4.34 12.32 4 13 C2.015625 11.82421875 2.015625 11.82421875 0 10 C-0.390625 7.51953125 -0.390625 7.51953125 -0.25 4.8125 C-0.21390625 3.91144531 -0.1778125 3.01039062 -0.140625 2.08203125 C-0.07101562 1.05142578 -0.07101562 1.05142578 0 0 Z " fill="#08DBAC" transform="translate(4,19)"/>
<path d="M0 0 C0.99 0.495 0.99 0.495 2 1 C2 1.66 2 2.32 2 3 C2.969375 3.12375 3.93875 3.2475 4.9375 3.375 C6.4534375 3.684375 6.4534375 3.684375 8 4 C8.33 4.66 8.66 5.32 9 6 C7.35 6 5.7 6 4 6 C4 7.98 4 9.96 4 12 C3.34 12 2.68 12 2 12 C2 11.34 2 10.68 2 10 C1.34 10 0.68 10 0 10 C0 6.7 0 3.4 0 0 Z " fill="#0CC6C0" transform="translate(7,20)"/>
<path d="M0 0 C1.984375 1.14453125 1.984375 1.14453125 4 3 C4.390625 5.69921875 4.390625 5.69921875 4.25 8.6875 C4.21390625 9.68136719 4.1778125 10.67523438 4.140625 11.69921875 C4.09421875 12.45847656 4.0478125 13.21773437 4 14 C1.70895452 11.75930717 0.02886531 10.08659593 -1 7 C-0.625 3.25 -0.625 3.25 0 0 Z " fill="#20D591" transform="translate(8,4)"/>
<path d="M0 0 C-0.99 0.495 -0.99 0.495 -2 1 C-1.34 3.97 -0.68 6.94 0 10 C-0.66 10 -1.32 10 -2 10 C-2 11.65 -2 13.3 -2 15 C-2.66 15 -3.32 15 -4 15 C-3.67 10.71 -3.34 6.42 -3 2 C-4.32 1.67 -5.64 1.34 -7 1 C-4.53721199 -0.231394 -2.7204945 -0.07159196 0 0 Z " fill="#16C1AC" transform="translate(30,23)"/>
<path d="M0 0 C3 1 3 1 4 3 C4.35109598 8.35421369 4.43200615 11.60703213 1 16 C0.67 16 0.34 16 0 16 C0 14.35 0 12.7 0 11 C0.66 11 1.32 11 2 11 C1.855625 9.741875 1.71125 8.48375 1.5625 7.1875 C1.48128906 6.47980469 1.40007813 5.77210937 1.31640625 5.04296875 C1.02829265 2.80603607 1.02829265 2.80603607 0 0 Z " fill="#109EE3" transform="translate(27,1)"/>
<path d="M0 0 C0.66 0 1.32 0 2 0 C2.3690205 9.41002278 2.3690205 9.41002278 0 14 C-0.33 14 -0.66 14 -1 14 C-1.33 10.37 -1.66 6.74 -2 3 C-1.34 3 -0.68 3 0 3 C0 2.01 0 1.02 0 0 Z " fill="#01D8BC" transform="translate(17,2)"/>
<path d="M0 0 C0.99 0 1.98 0 3 0 C3.66 2.97 4.32 5.94 5 9 C4.34 9 3.68 9 3 9 C2.67 7.68 2.34 6.36 2 5 C1.67 7.31 1.34 9.62 1 12 C0.67 12 0.34 12 0 12 C0 8.04 0 4.08 0 0 Z " fill="#18D98F" transform="translate(0,9)"/>
<path d="M0 0 C2.31 0 4.62 0 7 0 C6.67 1.65 6.34 3.3 6 5 C4.68 4.67 3.36 4.34 2 4 C2 3.34 2 2.68 2 2 C1.34 2 0.68 2 0 2 C0 1.34 0 0.68 0 0 Z " fill="#14CFA6" transform="translate(11,0)"/>
<path d="M0 0 C0.99 0.33 1.98 0.66 3 1 C3 2.65 3 4.3 3 6 C2.01 5.67 1.02 5.34 0 5 C-0.33 6.32 -0.66 7.64 -1 9 C-1.625 5.625 -1.625 5.625 -2 2 C-1.34 1.34 -0.68 0.68 0 0 Z " fill="#0FE396" transform="translate(10,1)"/>
<path d="M0 0 C0.33 0.66 0.66 1.32 1 2 C1.66 2 2.32 2 3 2 C3 3.98 3 5.96 3 8 C2.01 8.495 2.01 8.495 1 9 C-0.4783226 6.04335481 -0.06032783 3.25770263 0 0 Z " fill="#01C5D2" transform="translate(10,24)"/>
<path d="M0 0 C2.10633718 1.70828921 2.93801608 2.52148416 3.29296875 5.26171875 C3.25816406 6.06222656 3.22335938 6.86273438 3.1875 7.6875 C3.16042969 8.49574219 3.13335938 9.30398437 3.10546875 10.13671875 C3.07066406 10.75160156 3.03585938 11.36648437 3 12 C0.92800598 8.10869415 0 4.43960753 0 0 Z " fill="#109BDF" transform="translate(16,26)"/>
<path d="M0 0 C0 2.31 0 4.62 0 7 C-0.99 7.495 -0.99 7.495 -2 8 C-2.33 5.69 -2.66 3.38 -3 1 C-1 0 -1 0 0 0 Z " fill="#02CCCA" transform="translate(31,23)"/>
<path d="M0 0 C0 0.33 0 0.66 0 1 C-1.3921875 1.1546875 -1.3921875 1.1546875 -2.8125 1.3125 C-6.03254358 2.0070192 -7.02579865 2.47740939 -9 5 C-9.33 3.68 -9.66 2.36 -10 1 C-6.78548731 -0.60725635 -3.56387464 -0.05748185 0 0 Z " fill="#13B7BF" transform="translate(28,0)"/>
</svg>
